<svg xmlns="http://www.w3.org/2000/svg" width="43.781" height="40.989" viewBox="0 0 43.781 40.989">
  <g id="icn-grind" transform="translate(-11.219 -9.511)">
    <g id="Group_39" data-name="Group 39" transform="translate(11.219 9.511)">
      <g id="Group_38" data-name="Group 38">
        <path id="Path_6" data-name="Path 6" d="M29.715,64.365a11.354,11.354,0,0,0,2.381-2l2.5,1.443,2.278-3.945-2.5-1.443a11.024,11.024,0,0,0,.541-3.065l2.841-.5-.791-4.49-2.841.5A11.04,11.04,0,0,0,32.57,48.18l1.858-2.211-3.489-2.931-1.854,2.211a10.943,10.943,0,0,0-2.922-1.068V41.3H21.606v2.882a10.943,10.943,0,0,0-2.922,1.068l-1.854-2.211-3.489,2.931L15.2,48.18a11.125,11.125,0,0,0-1.559,2.689l-2.841-.5-.8,4.49,2.841.5a11.025,11.025,0,0,0,.541,3.065l-2.5,1.443,2.278,3.945,2.5-1.443a10.983,10.983,0,0,0,2.381,2l-.987,2.712,4.284,1.559.987-2.712a11.173,11.173,0,0,0,1.555.112,10.527,10.527,0,0,0,1.555-.112l.987,2.712,4.284-1.559ZM23.88,60.814A5.821,5.821,0,1,1,29.7,54.993,5.828,5.828,0,0,1,23.88,60.814Z" transform="translate(-10 -41.3)" fill="#324755"/>
        <path id="Path_7" data-name="Path 7" d="M490.474,519.37l-1.966.634a7.842,7.842,0,0,0-1.372-1.756l1.1-1.751-2.765-1.733-1.1,1.751a7.91,7.91,0,0,0-2.176-.469L481.91,514l-3.23.451.286,2.046A7.821,7.821,0,0,0,477,517.543l-1.532-1.385-2.185,2.426,1.537,1.385a7.953,7.953,0,0,0-.84,2.064l-2.064-.076-.116,3.261,2.064.076a8,8,0,0,0,.684,2.118l-1.626,1.269,2.006,2.573,1.631-1.273a8.074,8.074,0,0,0,1.885,1.184l-.433,2.024,3.19.684.433-2.019a7.868,7.868,0,0,0,2.2-.308l.969,1.823,2.882-1.528-.969-1.827a7.933,7.933,0,0,0,1.488-1.653l1.917.777,1.224-3.024-1.912-.777a7.858,7.858,0,0,0,.08-2.225l1.966-.634Zm-8.247,8.7a4.165,4.165,0,1,1,3.552-4.7A4.171,4.171,0,0,1,482.227,528.068Z" transform="translate(-451.169 -492.882)" fill="#324755"/>
        <path id="Path_8" data-name="Path 8" d="M657.949,181.155l.076-2.573-1.631-.049a6.282,6.282,0,0,0-.554-1.671l1.278-1.01-1.595-2.019-1.278,1.01a6.166,6.166,0,0,0-1.5-.92l.331-1.6-2.52-.523-.331,1.6a6.263,6.263,0,0,0-1.738.25l-.773-1.434-2.269,1.22.773,1.434a6.126,6.126,0,0,0-1.166,1.313l-1.514-.6-.956,2.395,1.514.6a6.241,6.241,0,0,0-.054,1.756l-1.546.514.809,2.444,1.546-.514a6.141,6.141,0,0,0,1.09,1.38l-.858,1.385,2.189,1.354.858-1.389a6.444,6.444,0,0,0,1.72.357l.237,1.617,2.546-.371L652.4,185.5a5.842,5.842,0,0,0,.8-.362,6.4,6.4,0,0,0,.746-.474l1.22,1.086,1.711-1.921-1.22-1.086a6.4,6.4,0,0,0,.648-1.631Zm-6.138,1.376a3.288,3.288,0,1,1,1.336-4.454A3.293,3.293,0,0,1,651.81,182.531Z" transform="translate(-614.244 -165.97)" fill="#324755"/>
      </g>
    </g>
  </g>
</svg>
